<?xml version="1.0" standalone="no"?>
<!DOCTYPE svg PUBLIC "-//W3C//DTD SVG 20010904//EN"
 "http://www.w3.org/TR/2001/REC-SVG-20010904/DTD/svg10.dtd">
<svg version="1.0" xmlns="http://www.w3.org/2000/svg"
 width="512.000000pt" height="512.000000pt" viewBox="0 0 512.000000 512.000000"
 preserveAspectRatio="xMidYMid meet">
<metadata>
Created by potrace 1.14, written by Peter Selinger 2001-2017
</metadata>
<g transform="translate(0.000000,512.000000) scale(0.100000,-0.100000)"
fill="#000000" stroke="none">
<path d="M3826 3908 c-20 -44 -39 -78 -43 -76 -5 1 -51 24 -103 50 -52 26
-109 49 -127 52 -33 4 -166 -30 -226 -59 -19 -9 -47 -29 -62 -45 -23 -24 -27
-35 -23 -67 3 -21 15 -54 27 -74 19 -33 33 -40 168 -88 282 -101 472 -208 489
-276 11 -46 -32 -85 -111 -99 -15 -3 -37 -17 -49 -31 -20 -23 -29 -26 -71 -23
l-48 3 -38 90 c-22 50 -43 99 -48 110 -30 67 -53 121 -67 155 -9 22 -17 40
-18 40 -15 -1 -107 -35 -159 -58 -86 -39 -99 -52 -91 -91 l6 -30 -63 34 c-35
19 -104 48 -154 64 -401 130 -779 34 -1107 -282 -53 -51 -62 -55 -120 -63
-219 -26 -446 30 -602 148 -46 34 -176 167 -176 178 0 21 -129 64 -225 76 -22
3 -53 7 -70 10 -16 3 -142 8 -280 11 -244 6 -249 5 -235 -13 8 -11 22 -24 30
-31 13 -10 10 -13 -15 -23 -48 -18 -66 -39 -54 -62 14 -26 50 -38 134 -45 l70
-5 81 -82 c230 -231 473 -375 631 -376 31 0 87 -22 235 -93 106 -51 212 -102
235 -113 32 -15 50 -33 79 -84 21 -36 69 -117 106 -180 51 -86 68 -124 68
-152 0 -38 -3 -41 -65 -53 -94 -18 -94 -18 -101 1 -63 189 -256 400 -439 478
-22 10 -47 21 -55 25 -53 27 -164 45 -285 45 -147 1 -185 -4 -276 -35 -233
-79 -433 -267 -518 -489 -45 -116 -59 -200 -56 -330 2 -63 6 -126 9 -139 43
-188 123 -331 259 -457 167 -156 358 -226 592 -220 144 4 218 22 342 82 152
74 253 166 349 316 l56 87 49 -39 c27 -22 70 -57 97 -78 l47 -38 500 2 c625 3
960 12 1031 29 l21 5 -19 67 c-27 95 -39 172 -43 288 -7 170 28 270 129 366
33 32 61 57 63 55 1 -1 -6 -34 -17 -72 -68 -235 -29 -493 106 -696 268 -402
817 -500 1204 -213 356 263 443 772 196 1143 -146 220 -415 371 -661 372 l-60
0 48 32 48 31 -26 27 c-30 31 -31 40 -7 41 32 1 97 44 110 72 12 25 11 33 -7
68 -19 36 -192 272 -263 359 -16 19 -32 40 -36 45 -5 6 -45 57 -91 114 -74 94
-81 106 -75 135 11 52 12 88 2 125 -10 37 -64 116 -84 125 -7 3 -27 -29 -48
-76z m-2825 -1376 c82 -21 173 -77 249 -152 69 -69 143 -181 129 -194 -6 -6
-396 -92 -520 -115 -36 -7 -71 -16 -77 -20 -12 -7 -6 -60 19 -173 l11 -47 76
4 c43 2 147 6 232 10 85 4 186 8 223 10 l68 4 -7 -37 c-15 -85 -96 -217 -178
-289 -56 -49 -149 -100 -229 -124 -45 -14 -86 -17 -166 -15 -131 3 -146 7
-249 57 -183 89 -304 271 -319 476 -19 270 142 510 401 598 93 32 229 34 337
7z m3373 13 c61 -7 167 -48 226 -89 104 -70 193 -188 235 -311 21 -60 29 -228
14 -300 -44 -210 -240 -402 -454 -446 -135 -27 -283 -4 -404 64 -67 37 -177
144 -215 209 -30 52 -63 139 -73 195 -7 43 -7 175 0 213 16 83 77 209 131 271
75 87 208 166 316 188 90 18 112 19 224 6z m-2494 -730 c16 -33 28 -60 27 -61
-1 -1 -58 -4 -125 -7 l-124 -5 7 47 c4 25 8 53 10 61 2 15 56 25 138 25 36 0
39 -2 67 -60z"/>
</g>
</svg>
